<svg xmlns="http://www.w3.org/2000/svg" xmlns:xlink="http://www.w3.org/1999/xlink" style="shape-rendering:geometricPrecision;text-rendering:geometricPrecision;image-rendering:optimizeQuality;fill-rule:evenodd;clip-rule:evenodd" width="64" height="64" version="1.1" viewBox="0 0 64 64" xml:space="preserve"><defs><style type="text/css">.str0{stroke:#ffc106;stroke-width:2.5;stroke-linecap:round;stroke-linejoin:bevel;stroke-miterlimit:22.9256}.fil1{fill:none}.fil0{fill:#ffc106}</style></defs><g id="Layer_x0020_1"><g id="_866321920"><circle r="22.97" class="fil0" transform="matrix(0.543121 0.145529 -0.145529 0.543121 32.0002 31.9993)"/><path d="M32 12.4c0,1.52 0,2 0,2m-9.8 0.63c0.76,1.32 1,1.73 1,1.73m-8.17 5.44c1.32,0.76 1.73,1 1.73,1m-4.36 8.8c1.53,0 2,0 2,0m0.63 9.8c1.32,-0.76 1.73,-1 1.73,-1m5.44 8.17c0.76,-1.32 1,-1.73 1,-1.73m8.8 4.36c0,-1.53 0,-2 0,-2m9.8 -0.63c-0.76,-1.32 -1,-1.73 -1,-1.73m8.17 -5.44c-1.32,-0.76 -1.73,-1 -1.73,-1m4.36 -8.8c-1.53,0 -2,0 -2,0m-0.63 -9.8c-1.32,0.76 -1.73,1 -1.73,1m-5.44 -8.17c-0.76,1.32 -1,1.73 -1,1.73" class="fil1 str0"/></g></g></svg>